#define hand_cursor_mask_width 16
#define hand_cursor_mask_height 16
static unsigned char hand_cursor_mask_bits[] = {
   0x60, 0x00, 0xf0, 0x00, 0xf0, 0x00, 0xf0, 0x00, 0xf0, 0x0f, 0xf0, 0x3f,
   0xf6, 0x7f, 0xff, 0x7f, 0xff, 0x7f, 0xfe, 0x7f, 0xfc, 0x7f, 0xfc, 0x3f,
   0xf8, 0x3f, 0xf0, 0x1f, 0xe0, 0x1f, 0xe0, 0x1f };
