#define hand_cursor_width 16
#define hand_cursor_height 16
static unsigned char hand_cursor_bits[] = {
   0x60, 0x00, 0x90, 0x00, 0x90, 0x00, 0x90, 0x00, 0x90, 0x0f, 0x90, 0x34,
   0x16, 0x50, 0x19, 0x40, 0x11, 0x40, 0x02, 0x40, 0x04, 0x40, 0x04, 0x20,
   0x08, 0x20, 0x10, 0x10, 0x20, 0x10, 0xe0, 0x1f };
